<mxfile host="65bd71144e">
    <diagram id="ipnyc085cQ8X8ksFAIwS" name="Page-1">
        <mxGraphModel dx="1022" dy="651" grid="1" gridSize="10" guides="1" tooltips="1" connect="1" arrows="1" fold="1" page="1" pageScale="1" pageWidth="850" pageHeight="1100" math="0" shadow="0">
            <root>
                <mxCell id="0"/>
                <mxCell id="1" parent="0"/>
                <mxCell id="2" value="pfSense" style="rounded=1;whiteSpace=wrap;html=1;verticalAlign=top;" vertex="1" parent="1">
                    <mxGeometry x="10" y="140" width="530" height="130" as="geometry"/>
                </mxCell>
                <mxCell id="7" value="Static DNS entries&lt;div&gt;&lt;br&gt;&lt;/div&gt;&lt;div style=&quot;text-align: left;&quot;&gt;&lt;br&gt;&lt;/div&gt;" style="rounded=1;whiteSpace=wrap;html=1;verticalAlign=top;" vertex="1" parent="1">
                    <mxGeometry x="20" y="165" width="380" height="90" as="geometry"/>
                </mxCell>
                <mxCell id="12" value="&lt;font style=&quot;color: light-dark(rgb(0, 0, 0), rgb(0, 204, 0));&quot;&gt;https://gitea.mydomain.tld&lt;/font&gt;" style="shape=umlActor;verticalLabelPosition=bottom;verticalAlign=top;html=1;outlineConnect=0;" vertex="1" parent="1">
                    <mxGeometry x="180" y="50" width="30" height="60" as="geometry"/>
                </mxCell>
                <mxCell id="13" value="node1 = 192.168.2.10&#xa;node2 = 192.168.2.20&#xa;node3 = 192.168.2.30" style="text;html=1;align=center;verticalAlign=middle;whiteSpace=wrap;rounded=0;" vertex="1" parent="1">
                    <mxGeometry x="20" y="200" width="130" height="40" as="geometry"/>
                </mxCell>
                <mxCell id="14" value="&lt;font style=&quot;color: light-dark(rgb(0, 0, 0), rgb(0, 204, 0));&quot;&gt;gitea.mydomain.tld = hap.mydomain.tld&lt;/font&gt;&lt;br&gt;longhorn.mydomain.tld = hap.mydomain.tld&lt;br&gt;argocd.mydomain.tld = hap.mydomain.tld" style="text;html=1;align=left;verticalAlign=middle;whiteSpace=wrap;rounded=0;" vertex="1" parent="1">
                    <mxGeometry x="150" y="196.25" width="240" height="47.5" as="geometry"/>
                </mxCell>
                <mxCell id="21" value="&lt;font style=&quot;color: light-dark(rgb(0, 0, 0), rgb(0, 204, 0));&quot;&gt;node 1&lt;br&gt;&lt;/font&gt;192.168.2.10" style="rounded=1;whiteSpace=wrap;html=1;" vertex="1" parent="1">
                    <mxGeometry x="590" y="130" width="120" height="40" as="geometry"/>
                </mxCell>
                <mxCell id="22" value="&lt;font style=&quot;color: light-dark(rgb(0, 0, 0), rgb(0, 204, 0));&quot;&gt;node 2&lt;/font&gt;&lt;br&gt;192.168.2.20" style="rounded=1;whiteSpace=wrap;html=1;" vertex="1" parent="1">
                    <mxGeometry x="590" y="180" width="120" height="40" as="geometry"/>
                </mxCell>
                <mxCell id="23" value="&lt;font style=&quot;color: light-dark(rgb(0, 0, 0), rgb(0, 204, 0));&quot;&gt;node 3&lt;/font&gt;&lt;br&gt;192.168.2.30" style="rounded=1;whiteSpace=wrap;html=1;" vertex="1" parent="1">
                    <mxGeometry x="590" y="230" width="120" height="40" as="geometry"/>
                </mxCell>
                <mxCell id="25" style="edgeStyle=none;html=1;exitX=1;exitY=0.5;exitDx=0;exitDy=0;entryX=0;entryY=0.5;entryDx=0;entryDy=0;" edge="1" parent="1" source="24" target="22">
                    <mxGeometry relative="1" as="geometry"/>
                </mxCell>
                <mxCell id="26" style="edgeStyle=orthogonalEdgeStyle;html=1;exitX=1;exitY=0.5;exitDx=0;exitDy=0;entryX=0;entryY=0.5;entryDx=0;entryDy=0;rounded=0;curved=0;" edge="1" parent="1" source="24" target="21">
                    <mxGeometry relative="1" as="geometry"/>
                </mxCell>
                <mxCell id="27" style="edgeStyle=orthogonalEdgeStyle;html=1;exitX=1;exitY=0.5;exitDx=0;exitDy=0;entryX=0;entryY=0.5;entryDx=0;entryDy=0;rounded=0;strokeColor=default;align=center;verticalAlign=middle;fontFamily=Helvetica;fontSize=11;fontColor=default;labelBackgroundColor=default;endArrow=classic;" edge="1" parent="1" source="24" target="23">
                    <mxGeometry relative="1" as="geometry"/>
                </mxCell>
                <mxCell id="24" value="HA Proxy&lt;br&gt;&lt;font style=&quot;color: light-dark(rgb(0, 0, 0), rgb(0, 204, 0));&quot;&gt;hap.mydomain.tld&lt;/font&gt;" style="rounded=1;whiteSpace=wrap;html=1;" vertex="1" parent="1">
                    <mxGeometry x="410" y="180" width="120" height="40" as="geometry"/>
                </mxCell>
                <mxCell id="28" value="" style="endArrow=classic;html=1;entryX=0.5;entryY=0;entryDx=0;entryDy=0;edgeStyle=orthogonalEdgeStyle;rounded=0;curved=0;strokeColor=light-dark(#000000,#00CC00);" edge="1" parent="1" target="2">
                    <mxGeometry width="50" height="50" relative="1" as="geometry">
                        <mxPoint x="240" y="70" as="sourcePoint"/>
                        <mxPoint x="520" y="150" as="targetPoint"/>
                        <Array as="points">
                            <mxPoint x="275" y="70"/>
                        </Array>
                    </mxGeometry>
                </mxCell>
                <mxCell id="29" value="Load balances among nodes, detects failed nodes" style="text;html=1;align=center;verticalAlign=middle;whiteSpace=wrap;rounded=0;fontColor=light-dark(#000000,#00CC00);" vertex="1" parent="1">
                    <mxGeometry x="540" y="90" width="170" height="30" as="geometry"/>
                </mxCell>
            </root>
        </mxGraphModel>
    </diagram>
</mxfile>